HIERARCHY
ROOT Hips
{
	OFFSET	0	0	0
	CHANNELS 6  Xposition Yposition Zposition Xrotation Yrotation Zrotation
	JOINT Spine
	{
		OFFSET	0	6.07343	1.2254
		CHANNELS 3  Xrotation Yrotation Zrotation
		JOINT Spine1
		{
			OFFSET	0	10.4501	-1.86609
			CHANNELS 3  Xrotation Yrotation Zrotation
			JOINT Spine2
			{
				OFFSET	0	7.92155	0.84907
				CHANNELS 3  Xrotation Yrotation Zrotation
				JOINT Spine3
				{
					OFFSET	0	9.47973	2.81779
					CHANNELS 3  Xrotation Yrotation Zrotation
					JOINT Spine4
					{
						OFFSET	0	14.033	-1.43689
						CHANNELS 3  Xrotation Yrotation Zrotation
						JOINT Neck
						{
							OFFSET	0	6.69926	-4.69321
							CHANNELS 3  Xrotation Yrotation Zrotation
							JOINT Head
							{
								OFFSET	0	8.04284	-2.40725
								CHANNELS 3  Xrotation Yrotation Zrotation
								End Site
								{
									OFFSET	0	16.7761	-0.811749
								}
							}
						}
					}
					JOINT LeftShoulder
					{
						OFFSET	-4.03075	17.056	-8.04284
						CHANNELS 3  Xrotation Yrotation Zrotation
						JOINT LeftArm
						{
							OFFSET	-8.77205	-2.40725	3.08839
							CHANNELS 3  Xrotation Yrotation Zrotation
							JOINT LeftForeArm
							{
								OFFSET	-29.1116	-1.3287	2.07796
								CHANNELS 3  Xrotation Yrotation Zrotation
								JOINT LeftHand
								{
									OFFSET	-24.2228	-1.67393	1.72899
									CHANNELS 3  Xrotation Yrotation Zrotation
									End Site
									{
										OFFSET	-8.8401	-0.610901	0.630956
									}
								}
							}
						}
					}
					JOINT RightShoulder
					{
						OFFSET	4.03075	17.056	-8.04284
						CHANNELS 3  Xrotation Yrotation Zrotation
						JOINT RightArm
						{
							OFFSET	8.77205	-2.40725	3.08839
							CHANNELS 3  Xrotation Yrotation Zrotation
							JOINT RightForeArm
							{
								OFFSET	29.1116	-1.3287	2.07796
								CHANNELS 3  Xrotation Yrotation Zrotation
								JOINT RightHand
								{
									OFFSET	24.2228	-1.67393	1.72899
									CHANNELS 3  Xrotation Yrotation Zrotation
									End Site
									{
										OFFSET	8.8401	-0.610901	0.630956
									}
								}
							}
						}
					}
				}
			}
		}
	}
	JOINT LeftUpLeg
	{
		OFFSET	-8.30253	-3.03671	-0.612699
		CHANNELS 3  Xrotation Yrotation Zrotation
		JOINT LeftLeg
		{
			OFFSET	-1.82971	-35.8523	-0.56045
			CHANNELS 3  Xrotation Yrotation Zrotation
			JOINT LeftFoot
			{
				OFFSET	-1.78206	-32.849	2.82502
				CHANNELS 3  Xrotation Yrotation Zrotation
				JOINT LeftToeBase
				{
					OFFSET	0	-4.10589	-10.9053
					CHANNELS 3  Xrotation Yrotation Zrotation
					End Site
					{
						OFFSET	0	-1.64236	-6.56943
					}
				}
			}
		}
	}
	JOINT RightUpLeg
	{
		OFFSET	8.30253	-3.03671	-0.612699
		CHANNELS 3  Xrotation Yrotation Zrotation
		JOINT RightLeg
		{
			OFFSET	1.82971	-35.8523	-0.56045
			CHANNELS 3  Xrotation Yrotation Zrotation
			JOINT RightFoot
			{
				OFFSET	1.78206	-32.849	2.82502
				CHANNELS 3  Xrotation Yrotation Zrotation
				JOINT RightToeBase
				{
					OFFSET	0	-4.10589	-10.9053
					CHANNELS 3  Xrotation Yrotation Zrotation
					End Site
					{
						OFFSET	0	-1.64236	-6.56943
					}
				}
			}
		}
	}
}
MOTION
Frames: 15
Frame Time: 0.020409
 0 -3.10596 3.42597 -0 0 -0 -0 0 -0 -0 0 -0 -0 0 -0 -0 0 -0 -0 0 -0 -0 0 -0 -0 0 -0 -0 0 -0 -0 0 -0 -0 0 -0 -0 0 -0 -0 0 -0 -0 0 -0 -0 0 -0 -0 0 -0 -0 0 -0 -0 0 -0 -0 0 -0 -0 0 -0 -0 0 -0 -0 0 -0 -0 0 -0 -0 0 -0
 -146.831 73.3284 -180.023 161.866 -30.0617 179.874 180 -179.994 177.684 175.469 -179.989 176.14 175.439 -179.966 176.14 176.893 -179.994 177.684 178.692 179.982 179.228 1.3901 17.6045 4.09678 0.191642 25.4389 3.15572 1.021 -17.6607 2.18612 5.64253 4.58142 37.1279 41.8699 -142.516 26.8324 -0 -16.2928 -10.4458 175.45 153.773 -170.079 50.5719 33.2923 6.30505 149.544 115.261 -150.263 -0 35.9121 5.27773 25.4195 -17.2755 -18.263 132.568 -176.956 -179.767 157.235 179.957 -169.064 179.128 180 -180 1.77788 17.6771 -25.4493 148.536 -168.479 179.792 17.5057 0.063973 -5.31093 178.236 180 -180
 -146.676 73.2706 -180.132 161.974 -28.748 -179.396 180 -179.998 177.553 175.434 -179.996 175.922 175.402 -179.987 175.922 176.863 -179.998 177.553 178.696 179.981 179.185 1.4455 17.8265 4.23753 0.207075 25.6459 3.21074 0.644303 -17.4422 1.37844 8.01711 5.69598 36.7348 42.4788 -141.954 27.4756 -0 -15.8811 -10.6735 176.222 154.541 -171.776 48.3986 31.8941 5.68171 135.592 108.665 -135.269 -0 39.4394 5.03176 25.0804 -17.5279 -19.014 131.712 -176.635 -179.808 157.318 179.971 -169.036 179.11 180 -180 1.79462 17.6081 -25.4929 148.299 -169.17 179.763 17.656 0.0404547 -5.43921 178.22 180 -180
 -146.541 73.2662 -180.356 161.976 -27.0313 -178.718 0.000171695 0.0038423 -2.55859 175.395 179.992 175.736 175.368 179.977 175.736 176.847 179.996 177.441 178.659 179.98 179.147 1.41263 17.9471 4.06581 0.184683 26.0571 3.19707 0.835467 -17.337 1.78696 10.7533 6.64784 37.4202 42.6479 -142.04 27.634 -0 -15.4434 -10.9524 176.912 155.463 -173.288 46.2795 30.1543 5.06581 109.656 104.389 -108.413 -0 42.9863 4.64607 24.4741 -17.0303 -19.431 130.734 -176.216 -179.696 157.397 -179.966 -168.933 179.088 180 -180 1.81446 17.5778 -25.4905 148.104 -169.816 179.858 17.4771 0.0277153 -5.55365 178.202 180 -180
 -146.406 73.2226 -180.42 162.09 -25.8595 -178.108 0.000254666 0.00548631 -2.65767 175.376 179.989 175.571 175.345 179.967 175.571 176.818 179.995 177.342 178.691 179.98 179.114 1.59978 18.1615 3.67137 0.22309 26.7788 3.13342 0.759958 -17.8114 1.62774 13.6894 7.15269 37.7249 43.3231 -141.673 28.5162 -0 -14.8902 -10.7136 177.353 156.106 -174.254 44.4624 27.8678 4.39404 80.9133 104.638 -78.8708 -0 46.0667 3.9268 24.1983 -16.1456 -19.903 130.28 -175.35 -179.715 157.209 -179.948 -168.647 179.06 180 -180 1.82704 17.542 -25.6155 147.86 -170.6 179.908 17.5652 0.0147492 -5.66358 178.186 180 -180
 -146.202 73.2102 -180.485 162.074 -24.7354 -177.722 0.000427568 0.00892238 -2.74356 175.372 179.982 175.427 175.342 179.947 175.427 176.816 179.991 177.256 178.686 179.979 179.086 1.63626 18.11 3.21729 0.219967 27.1704 3.03274 0.277672 -17.9191 0.59486 17.0307 7.66793 37.1388 44.1039 -141.256 29.0655 -0 -14.2683 -10.5572 177.888 156.754 -175.421 42.7539 25.5989 3.4542 60.8301 107.614 -57.9602 -0 48.7037 3.19862 23.9035 -15.3587 -20.4081 130.007 -174.48 -179.902 157.203 -179.981 -168.511 179.035 180 -180 1.72285 17.5602 -25.4869 147.719 -171.398 179.938 17.5757 0.0123751 -5.79484 178.171 180 -180
 -146.058 73.2223 -180.749 162.151 -23.4352 -176.947 0.000197167 0.00395158 -2.85644 175.363 179.992 175.239 175.347 179.976 175.239 176.857 179.996 177.144 178.574 179.976 179.048 1.35515 18.0262 2.83711 0.115112 27.5533 2.97169 179.733 -161.758 179.426 21.2617 8.13693 36.3891 45.3743 -140.338 30.8101 -0 -13.2714 -10.5769 178.749 156.791 -177.289 41.5597 23.1556 1.33178 50.0116 111.254 -46.163 -0 50.6884 2.4645 23.8741 -14.7607 -21.051 129.281 -173.689 -179.997 157.575 -179.981 -168.509 179.018 180 -180 1.60208 17.5864 -25.4826 147.897 -172.21 179.928 17.4542 -0.027255 -5.9128 178.159 180 -180
 -145.893 73.3041 -180.822 162.023 -22.17 -176.479 180 -179.997 177.06 175.365 -179.995 175.101 175.371 -179.985 175.101 176.931 -179.997 177.06 178.407 179.973 179.021 0.883236 17.8958 2.59607 179.954 152.228 -177.05 178.333 -161.718 176.422 26.3369 7.92584 34.021 47.0447 -139.202 32.8929 -0 -12.1802 -10.5864 179.465 156.87 -178.84 40.6526 21.139 -0.766765 43.1451 115.206 -38.4375 -0 52.3171 1.67908 23.636 -14.0819 -21.7064 128.625 -173.011 -179.904 157.467 -179.988 -168.522 179.003 180 -180 1.24049 17.6631 -25.4611 148.036 -173.093 179.959 17.0862 -0.0343985 -6.11408 178.146 180 -180
 -145.796 73.3736 -180.743 161.752 -20.8828 -175.989 0.00023086 0.00435025 -3.03774 175.361 179.991 174.937 175.385 179.974 174.937 176.974 179.996 176.962 178.297 179.97 178.988 0.604178 18.0976 2.51922 179.847 151.687 -177.006 177.398 -161.315 174.404 32.5075 7.46379 32.1194 48.8872 -138.144 35.0193 -0 -11.0083 -10.8074 0.490792 22.8882 -1.06274 39.7494 18.906 -3.63207 37.257 119.644 -31.502 -0 53.473 1.07209 23.1724 -13.312 -22.6828 127.765 -172.41 -179.813 157.668 179.99 -168.528 178.989 180 -180 0.864463 17.8029 -25.8429 147.935 -174.155 -179.924 16.5264 -0.102505 -6.44425 178.135 180 -180
 -145.724 73.4031 -180.458 161.597 -19.3069 -175.48 0.000232575 0.00435619 -3.0561 175.355 179.991 174.907 175.381 179.974 174.907 176.976 179.996 176.944 178.282 179.969 178.982 0.613668 18.2836 2.32193 179.834 151.157 -177.016 177.043 -160.268 173.622 37.5919 6.94507 31.3234 50.418 -137.525 36.9688 -0 -10.3113 -11.0178 1.26087 22.5188 -2.72957 39.0891 16.915 -6.04416 33.7281 123.461 -27.1312 -0 54.3439 0.575536 22.6089 -12.5924 -23.7923 126.833 -171.918 -179.781 157.758 179.976 -168.524 178.977 180 -180 0.383234 17.9753 -26.2047 147.878 -175.23 -179.81 16.2257 -0.0758399 -6.75463 178.125 180 -180
 -145.734 73.4014 -180.396 161.52 -17.874 -175.154 180 -179.999 176.958 175.359 -179.999 174.93 175.409 -179.996 174.93 177.059 -179.999 176.958 178.096 179.966 178.987 0.069375 18.2232 2.26177 179.65 150.993 -176.981 176.528 -159.904 172.499 43.1267 6.46066 29.7985 52.3292 -136.63 39.3935 -0 -9.62368 -11.4748 1.37427 21.5791 -2.97071 38.7681 13.9717 -9.23713 31.6295 126.245 -24.4282 -0 54.7557 0.230896 22.4451 -11.5438 -24.7075 126.077 -171.479 -179.8 157.621 179.984 -168.52 178.966 180 -180 0.024454 18.3296 -26.4601 147.911 -176.446 -179.744 16.2089 -0.046818 -7.02549 178.117 180 -180
 -145.522 73.4394 -180.436 161.611 -16.0995 -174.849 0.000210617 0.00398728 -3.02368 175.36 179.992 174.961 175.42 179.976 174.961 177.083 179.996 176.976 178.041 179.966 178.993 179.893 161.968 -177.805 179.597 151.193 -177.007 176.31 -159.175 172.014 48.4511 6.12243 28.7852 54.641 -135.51 42.4017 -0 -8.90961 -12.0678 1.37924 20.5331 -2.97542 37.4026 10.4022 -12.8006 30.2534 128.783 -22.766 -0 55.2697 -0.367921 22.2493 -9.97017 -25.8638 125.553 -171.059 -179.787 157.28 179.982 -168.528 178.956 180 -180 179.926 160.939 153.785 147.994 -177.587 -179.696 16.3306 -0.0222777 -7.18765 178.108 180 -180
 -145.476 73.5331 -180.75 161.941 -14.1948 -174.409 180 -179.998 176.985 175.361 -179.997 174.976 175.426 -179.99 174.976 177.106 -179.998 176.985 177.99 179.965 178.996 179.712 162.424 -178.111 179.548 151.614 -177.12 175.891 -158.996 171.097 53.2327 5.79991 27.4853 57.0664 -134.475 45.6637 -0 -8.20962 -12.6169 1.31874 19.6338 -2.83908 35.5516 6.76424 -16.4285 30.1088 130.014 -22.1213 -0 55.8001 -1.13533 22.18 -8.7709 -26.6846 125.444 -170.567 -179.826 157.035 179.963 -168.536 178.948 180 -180 0.18378 19.8382 -26.1098 148.515 -178.539 -179.738 16.2145 -0.0749969 -7.29672 178.097 180 -180
 -145.269 73.6546 -181.103 162.346 -12.3319 -173.808 180 -179.994 176.957 175.394 -179.988 174.928 175.451 -179.964 174.928 177.106 -179.994 176.957 178.054 179.966 178.986 179.824 162.809 -178.23 179.601 152.207 -177.217 175.237 -158.849 169.664 57.3868 5.30684 26.0072 59.9869 -133.292 49.5192 -0 -7.46725 -12.9745 1.33652 18.9959 -2.87286 33.2174 2.78958 -20.7907 31.3812 129.774 -23.2626 -0 56.3361 -2.164 22.3306 -7.65334 -27.3402 125.37 -170.183 -179.937 157.262 179.946 -168.534 178.949 180 -180 0.439061 20.646 -25.9468 149.18 -179.521 -179.793 16.0908 -0.0592193 -7.33736 178.083 180 -180
 -145.204 73.7748 -181.141 162.641 -10.9365 -173.232 179.999 -179.99 176.921 175.431 -179.98 174.868 175.478 -179.939 174.868 177.106 -179.99 176.921 178.125 179.966 178.974 179.952 162.986 -178.005 179.661 152.793 -177.214 174.613 -158.706 168.291 61.0522 4.80564 24.555 63.3096 -132.162 53.7859 -0 -6.72005 -12.8987 1.3019 18.5583 -2.79515 31.7102 -0.912192 -25.2045 33.3956 128.633 -25.0765 -0 56.7666 -3.11173 22.2624 -6.64502 -28.3141 125.612 -169.701 -179.96 157.488 179.956 -168.522 178.952 180 -180 0.910498 21.377 -26.5292 149.89 179.64 -179.837 15.6101 -0.0589834 -7.37808 178.066 180 -180
